PathFileType	4	(X/Y/Z)	C:/Users/beibeiliu/ov580/test_trc\sequence.30_training_dense_left.trc
DataRate	CameraRate	NumFrames	NumMarkers	Units	OrigDataRate	OrigDataStartFrame	OrigNumFrames
120	120	7	19	mm	120	1	354
Frame#	Time	ThumbCMC			ThumbMCP			ThumbIP			ThumbTip			IndexMCP			IndexPIP			IndexTip			MiddleMCP			MiddlePIP			MiddleTip			RingMCP			RingPIP			RingTip			PinkyMCP			PinkyPIP			PinkyTip			BackHand1			BackHand2			BackHand3	
		X0	Y0	Z0	X1	Y1	Z1	X2	Y2	Z2	X3	Y3	Z3	X4	Y4	Z4	X5	Y5	Z5	X6	Y6	Z6	X7	Y7	Z7	X8	Y8	Z8	X9	Y9	Z9	X10	Y10	Z10	X11	Y11	Z11	X12	Y12	Z12	X13	Y13	Z13	X14	Y14	Z14	X15	Y15	Z15	X16	Y16	Z16	X17	Y17	Z17	X18	Y18	Z18	
0	0	-173.189	-14.3221	58.9206	-158.848	-22.3482	38.568	-145.877	-23.6118	17.947	-136.851	-26.4762	-2.48821	-177.986	-16.0426	-10.4073	-170.921	-22.4642	-29.5166	-163.845	-26.3242	-55.5936	-197.46	-18.1139	-18.7707	-196.254	-23.4066	-40.9376	-196.474	-28.3193	-65.4669	-216.542	-20.2224	-14.7509	-217.624	-23.7413	-31.8999	-219.093	-28.0238	-52.6219	-240.479	-23.9642	-0.292978	-243.128	-27.4114	-14.1254	-245.299	-27.3727	-35.0708	-219.686	-3.51161	27.154	-222.057	3.17858	57.2498	-195.681	2.90934	41.682	
1	0.00833333	-175.961	-13.8038	56.2467	-159.805	-20.0715	36.6991	-153.015	-22.1509	16.2613	-139.743	-24.7268	-3.08289	-179.658	-14.0454	-12.3259	-173.504	-20.0682	-34.5201	-167.478	-25.2251	-57.419	-197.952	-16.3772	-21.5151	-197.057	-20.6473	-38.9373	-198.289	-26.4395	-66.1728	-222.768	-17.4941	-13.2132	-218.609	-21.7789	-32.5833	-220.873	-24.9912	-58.0492	-238.875	-21.7974	3.17142	-246.407	-25.3762	-19.0881	-250.04	-23.8017	-33.3135	-223.479	-2.68894	30.705	-222.087	5.30653	54.4195	-195.922	3.40921	40.0539	
2	0.0166667	-177.021	-13.8634	57.831	-162.952	-20.2379	38.5522	-150.753	-20.8815	12.7585	-143.629	-23.6641	0.0932198	-175.025	-13.4486	-15.0298	-174.997	-18.6012	-32.6128	-165.387	-22.9471	-53.2876	-201.539	-13.5763	-18.7859	-198.294	-19.5426	-40.3692	-196.511	-24.409	-64.6045	-218.593	-15.0853	-11.2313	-220.124	-20.3094	-37.1899	-223.059	-23.0395	-57.2213	-241.517	-18.9833	1.84445	-247.3	-23.3246	-16.8439	-249.807	-23.6374	-33.9632	-224.74	-0.537826	29.9674	-222.068	4.91821	54.4137	-198.396	4.63977	42.7928	
3	0.025	-174.548	-10.919	53.1556	-164.166	-17.9975	35.0646	-153.701	-19.7222	13.9037	-143.899	-22.6714	0.923051	-179.073	-11.9149	-15.1593	-171.629	-16.9303	-35.8368	-172.306	-22.0637	-53.5417	-200.588	-12.1098	-17.5244	-199.926	-18.7382	-42.8795	-200.879	-24.1581	-65.8805	-219.267	-13.9268	-14.1196	-222.069	-18.7969	-36.0877	-221.746	-21.1138	-52.5876	-237.76	-18.0296	2.59723	-244.086	-19.9824	-17.4473	-251.432	-19.4564	-33.8378	-223.696	-0.64394	27.0849	-226.751	6.27005	52.7149	-197.671	6.28544	39.56	
4	0.0333333	-180.09	-10.902	56.1996	-163.51	-16.3209	33.2521	-151.759	-18.9607	15.1428	-142.224	-21.7022	-1.23034	-178.2	-9.8905	-12.1211	-175.415	-15.311	-31.5885	-169.266	-20.1642	-53.0499	-199.429	-11.661	-23.4118	-198.519	-19.2423	-44.9994	-200.03	-22.701	-64.5	-225.328	-14.5251	-13.3212	-222.242	-17.8098	-37.8166	-225.174	-22.0617	-57.4059	-244.723	-18.2935	0.960627	-243.912	-19.8846	-16.4275	-252.828	-18.9689	-34.3364	-225.926	1.43595	27.2675	-222.301	7.63818	51.3632	-199.768	6.01107	39.1467	
5	0.0416667	-180.256	-9.22807	51.8459	-165.263	-15.1539	33.8966	-155.183	-17.2851	11.2142	-142.792	-20.9915	-2.66692	-178.694	-9.55958	-11.2696	-178.799	-16.5592	-36.1132	-171.047	-20.3809	-53.2986	-204.777	-12.2324	-22.6726	-200.801	-17.3862	-42.7197	-204.358	-22.9434	-66.0169	-227.076	-13.9141	-13.5374	-226.664	-17.8566	-37.6033	-228.006	-21.2479	-54.5192	-243.486	-16.5277	0.907829	-244.986	-19.2377	-14.5792	-253.83	-20.698	-33.6446	-223.875	2.22249	30.692	-225.793	7.57637	53.032	-197.64	7.08608	40.2851	
6	0.05	-178.684	-7.75222	52.0807	-163.655	-14.2537	32.8724	-157.076	-18.5943	15.1387	-146.315	-19.9807	-1.84651	-183.168	-9.7075	-16.8983	-176.779	-15.0554	-32.0126	-174.204	-19.9085	-54.2751	-206.817	-11.5709	-23.3936	-201.991	-16.1338	-40.6921	-203.511	-21.0322	-68.1308	-223.391	-12.5864	-11.447	-226.354	-16.8822	-34.7782	-225.461	-18.9923	-58.5387	-246.641	-17.001	1.07527	-249.631	-19.6393	-19.5167	-254.833	-19.5895	-35.3843	-223.865	0.622595	31.1802	-228.487	8.1752	54.4742	-202.232	9.41106	40.9698	
